<?xml version="1.0" encoding="UTF-8" standalone="no" ?>
<!DOCTYPE svg PUBLIC "-//W3C//DTD SVG 1.1//EN" "http://www.w3.org/Graphics/SVG/1.1/DTD/svg11.dtd">
<svg xmlns="http://www.w3.org/2000/svg" xmlns:xlink="http://www.w3.org/1999/xlink" version="1.1" width="1080" height="1080" viewBox="0 0 1080 1080" xml:space="preserve">
<desc>Created with Fabric.js 5.2.4</desc>
<defs>
</defs>
<g transform="matrix(1 0 0 1 540 540)" id="d38a50c1-dbeb-4298-962b-910a21a177b5"  >
</g>
<g transform="matrix(1 0 0 1 540 540)" id="311264db-2fde-4cd0-87aa-83ddf2a2aa15"  >
<rect style="stroke: none; stroke-width: 1; stroke-dasharray: none; stroke-linecap: butt; stroke-dashoffset: 0; stroke-linejoin: miter; stroke-miterlimit: 4; fill: rgb(255,255,255); fill-rule: nonzero; opacity: 1; visibility: hidden;" vector-effect="non-scaling-stroke"  x="-540" y="-540" rx="0" ry="0" width="1080" height="1080" />
</g>
<g transform="matrix(0 0 0 0 0 0)"  >
<g style=""   >
</g>
</g>
<g transform="matrix(0 0 0 0 0 0)"  >
<g style=""   >
</g>
</g>
<g transform="matrix(0 0 0 0 0 0)"  >
<g style=""   >
</g>
</g>
<g transform="matrix(31.76 0 0 31.76 540 540)"  >
<path style="stroke: none; stroke-width: 1; stroke-dasharray: none; stroke-linecap: butt; stroke-dashoffset: 0; stroke-linejoin: miter; stroke-miterlimit: 4; fill: rgb(39,39,39); fill-rule: evenodd; opacity: 1;"  transform=" translate(-17, -17)" d="M 27.625 29.75 C 27.625 29.75 29.75 29.75 29.75 27.625 C 29.75 25.5 27.625 19.125 17 19.125 C 6.375 19.125 4.25 25.5 4.25 27.625 C 4.25 29.75 6.375 29.75 6.375 29.75 L 27.625 29.75 Z M 6.38563 27.744 L 6.38563 27.7397 L 6.38563 27.744 Z M 6.42175 27.625 L 27.5782 27.625 C 27.5882 27.6238 27.5981 27.6224 27.608 27.6208 L 27.625 27.6165 C 27.6229 27.0938 27.2978 25.5212 25.857 24.0805 C 24.4715 22.695 21.8641 21.25 17 21.25 C 12.1337 21.25 9.5285 22.695 8.143 24.0805 C 6.70225 25.5212 6.37925 27.0938 6.375 27.6165 C 6.39055 27.6195 6.40614 27.6223 6.42175 27.625 Z M 27.6165 27.744 L 27.6165 27.7397 L 27.6165 27.744 Z M 17 14.875 C 18.1272 14.875 19.2082 14.4272 20.0052 13.6302 C 20.8022 12.8332 21.25 11.7522 21.25 10.625 C 21.25 9.49783 20.8022 8.41683 20.0052 7.6198 C 19.2082 6.82277 18.1272 6.375 17 6.375 C 15.8728 6.375 14.7918 6.82277 13.9948 7.6198 C 13.1978 8.41683 12.75 9.49783 12.75 10.625 C 12.75 11.7522 13.1978 12.8332 13.9948 13.6302 C 14.7918 14.4272 15.8728 14.875 17 14.875 Z M 23.375 10.625 C 23.375 12.3158 22.7034 13.9373 21.5078 15.1328 C 20.3123 16.3284 18.6908 17 17 17 C 15.3092 17 13.6877 16.3284 12.4922 15.1328 C 11.2966 13.9373 10.625 12.3158 10.625 10.625 C 10.625 8.93425 11.2966 7.31274 12.4922 6.11719 C 13.6877 4.92165 15.3092 4.25 17 4.25 C 18.6908 4.25 20.3123 4.92165 21.5078 6.11719 C 22.7034 7.31274 23.375 8.93425 23.375 10.625 Z" stroke-linecap="round" />
</g>
</svg>