<?xml version="1.0" encoding="UTF-8" standalone="no" ?>
<!DOCTYPE svg PUBLIC "-//W3C//DTD SVG 1.1//EN" "http://www.w3.org/Graphics/SVG/1.1/DTD/svg11.dtd">
<svg xmlns="http://www.w3.org/2000/svg" xmlns:xlink="http://www.w3.org/1999/xlink" version="1.1" width="1080" height="1080" viewBox="0 0 1080 1080" xml:space="preserve">
<desc>Created with Fabric.js 5.2.4</desc>
<defs>
</defs>
<g transform="matrix(1 0 0 1 540 540)" id="c8e1cba7-1549-473f-9cfb-67f3c3ab2a15"  >
</g>
<g transform="matrix(1 0 0 1 540 540)" id="1d1dc0c3-20e5-44ab-8fce-c0fc33fb4289"  >
<rect style="stroke: none; stroke-width: 1; stroke-dasharray: none; stroke-linecap: butt; stroke-dashoffset: 0; stroke-linejoin: miter; stroke-miterlimit: 4; fill: rgb(255,255,255); fill-rule: nonzero; opacity: 1; visibility: hidden;" vector-effect="non-scaling-stroke"  x="-540" y="-540" rx="0" ry="0" width="1080" height="1080" />
</g>
<g transform="matrix(0 0 0 0 0 0)"  >
<g style=""   >
</g>
</g>
<g transform="matrix(43.2 0 0 43.2 540 540)"  >
<path style="stroke: none; stroke-width: 1; stroke-dasharray: none; stroke-linecap: butt; stroke-dashoffset: 0; stroke-linejoin: miter; stroke-miterlimit: 4; fill: rgb(39,39,39); fill-rule: evenodd; opacity: 1;"  transform=" translate(-12.19, -12.81)" d="M 0 1.4375 C 0 1.22201 0.0856024 1.01535 0.237976 0.862976 C 0.390349 0.710602 0.597012 0.625 0.8125 0.625 L 3.25 0.625 C 3.43124 0.62505 3.60726 0.685695 3.75006 0.79729 C 3.89287 0.908886 3.99427 1.06502 4.03813 1.24087 L 4.69625 3.875 L 23.5625 3.875 C 23.6827 3.87507 23.8013 3.9018 23.9099 3.95325 C 24.0185 4.0047 24.1143 4.07959 24.1905 4.17254 C 24.2666 4.26548 24.3212 4.37416 24.3503 4.49075 C 24.3794 4.60733 24.3823 4.72892 24.3587 4.84675 L 22.7337 12.9717 C 22.6982 13.1489 22.6046 13.3092 22.4677 13.4272 C 22.3309 13.5452 22.1586 13.6143 21.9781 13.6234 L 6.708 14.3904 L 7.17438 16.875 L 21.125 16.875 C 21.3405 16.875 21.5472 16.9606 21.6995 17.113 C 21.8519 17.2653 21.9375 17.472 21.9375 17.6875 C 21.9375 17.903 21.8519 18.1097 21.6995 18.262 C 21.5472 18.4144 21.3405 18.5 21.125 18.5 L 6.5 18.5 C 6.31058 18.4998 6.12717 18.4335 5.98148 18.3124 C 5.83579 18.1913 5.73698 18.0232 5.70213 17.837 L 3.26625 4.86138 L 2.61625 2.25 L 0.8125 2.25 C 0.597012 2.25 0.390349 2.1644 0.237976 2.01202 C 0.0856024 1.85965 0 1.65299 0 1.4375 Z M 5.04075 5.5 L 6.40575 12.7784 L 21.2648 12.0325 L 22.5713 5.5 L 5.04075 5.5 Z M 8.125 18.5 C 7.26305 18.5 6.4364 18.8424 5.8269 19.4519 C 5.21741 20.0614 4.875 20.888 4.875 21.75 C 4.875 22.612 5.21741 23.4386 5.8269 24.0481 C 6.4364 24.6576 7.26305 25 8.125 25 C 8.98695 25 9.8136 24.6576 10.4231 24.0481 C 11.0326 23.4386 11.375 22.612 11.375 21.75 C 11.375 20.888 11.0326 20.0614 10.4231 19.4519 C 9.8136 18.8424 8.98695 18.5 8.125 18.5 Z M 19.5 18.5 C 18.638 18.5 17.8114 18.8424 17.2019 19.4519 C 16.5924 20.0614 16.25 20.888 16.25 21.75 C 16.25 22.612 16.5924 23.4386 17.2019 24.0481 C 17.8114 24.6576 18.638 25 19.5 25 C 20.362 25 21.1886 24.6576 21.7981 24.0481 C 22.4076 23.4386 22.75 22.612 22.75 21.75 C 22.75 20.888 22.4076 20.0614 21.7981 19.4519 C 21.1886 18.8424 20.362 18.5 19.5 18.5 Z M 8.125 20.125 C 7.69402 20.125 7.2807 20.2962 6.97595 20.601 C 6.67121 20.9057 6.5 21.319 6.5 21.75 C 6.5 22.181 6.67121 22.5943 6.97595 22.899 C 7.2807 23.2038 7.69402 23.375 8.125 23.375 C 8.55598 23.375 8.9693 23.2038 9.27405 22.899 C 9.57879 22.5943 9.75 22.181 9.75 21.75 C 9.75 21.319 9.57879 20.9057 9.27405 20.601 C 8.9693 20.2962 8.55598 20.125 8.125 20.125 Z M 19.5 20.125 C 19.069 20.125 18.6557 20.2962 18.351 20.601 C 18.0462 20.9057 17.875 21.319 17.875 21.75 C 17.875 22.181 18.0462 22.5943 18.351 22.899 C 18.6557 23.2038 19.069 23.375 19.5 23.375 C 19.931 23.375 20.3443 23.2038 20.649 22.899 C 20.9538 22.5943 21.125 22.181 21.125 21.75 C 21.125 21.319 20.9538 20.9057 20.649 20.601 C 20.3443 20.2962 19.931 20.125 19.5 20.125 Z" stroke-linecap="round" />
</g>
</svg>