<?xml version="1.0" encoding="UTF-8" standalone="no" ?>
<!DOCTYPE svg PUBLIC "-//W3C//DTD SVG 1.1//EN" "http://www.w3.org/Graphics/SVG/1.1/DTD/svg11.dtd">
<svg xmlns="http://www.w3.org/2000/svg" xmlns:xlink="http://www.w3.org/1999/xlink" version="1.1" width="1080" height="1080" viewBox="0 0 1080 1080" xml:space="preserve">
<desc>Created with Fabric.js 5.2.4</desc>
<defs>
</defs>
<g transform="matrix(1 0 0 1 540 540)" id="c78ac710-de52-4890-8c0a-f4498c213dae"  >
<rect style="stroke: none; stroke-width: 1; stroke-dasharray: none; stroke-linecap: butt; stroke-dashoffset: 0; stroke-linejoin: miter; stroke-miterlimit: 4; fill: rgb(255,255,255); fill-rule: nonzero; opacity: 1; visibility: hidden;" vector-effect="non-scaling-stroke"  x="-540" y="-540" rx="0" ry="0" width="1080" height="1080" />
</g>
<g transform="matrix(1 0 0 1 540 540)" id="9404c700-1847-4c6a-a28d-573f2b7d4fc5"  >
</g>
<g transform="matrix(43.2 0 0 43.2 540 540)" clip-path="url(#CLIPPATH_3)"  >
<clipPath id="CLIPPATH_3" >
	<rect transform="matrix(1 0 0 1 0.75 -0.75)" id="clip0_752_372" x="-12.06895" y="-12" rx="0" ry="0" width="24.1379" height="24" />
</clipPath>
<path style="stroke: none; stroke-width: 1; stroke-dasharray: none; stroke-linecap: butt; stroke-dashoffset: 0; stroke-linejoin: miter; stroke-miterlimit: 4; fill: rgb(255,255,255); fill-rule: evenodd; opacity: 1;"  transform=" translate(-12.08, -12.75)" d="M 0.761475 2.25 C 0.761475 2.05109 0.840946 1.86032 0.982407 1.71967 C 1.12387 1.57902 1.31573 1.5 1.51578 1.5 L 3.77871 1.5 C 3.94697 1.50005 4.11039 1.55603 4.24296 1.65904 C 4.37554 1.76205 4.46968 1.90618 4.5104 2.0685 L 5.12139 4.5 L 22.6365 4.5 C 22.748 4.50007 22.8582 4.52474 22.959 4.57223 C 23.0598 4.61972 23.1488 4.68885 23.2195 4.77465 C 23.2902 4.86044 23.3409 4.96076 23.3679 5.06838 C 23.3949 5.176 23.3976 5.28823 23.3757 5.397 L 21.8671 12.897 C 21.8341 13.0605 21.7472 13.2085 21.6201 13.3174 C 21.4931 13.4264 21.3331 13.4901 21.1656 13.4985 L 6.98906 14.2065 L 7.42203 16.5 L 20.3735 16.5 C 20.5736 16.5 20.7655 16.579 20.9069 16.7197 C 21.0484 16.8603 21.1278 17.0511 21.1278 17.25 C 21.1278 17.4489 21.0484 17.6397 20.9069 17.7803 C 20.7655 17.921 20.5736 18 20.3735 18 L 6.79596 18 C 6.6201 17.9998 6.44983 17.9386 6.31457 17.8268 C 6.17932 17.7151 6.08758 17.5599 6.05522 17.388 L 3.7938 5.4105 L 3.19035 3 L 1.51578 3 C 1.31573 3 1.12387 2.92098 0.982407 2.78033 C 0.840946 2.63968 0.761475 2.44891 0.761475 2.25 Z M 5.44121 6 L 6.70846 12.7185 L 20.5033 12.03 L 21.7162 6 L 5.44121 6 Z M 8.30458 18 C 7.50435 18 6.73691 18.3161 6.17106 18.8787 C 5.60522 19.4413 5.28733 20.2044 5.28733 21 C 5.28733 21.7956 5.60522 22.5587 6.17106 23.1213 C 6.73691 23.6839 7.50435 24 8.30458 24 C 9.1048 24 9.87224 23.6839 10.4381 23.1213 C 11.0039 22.5587 11.3218 21.7956 11.3218 21 C 11.3218 20.2044 11.0039 19.4413 10.4381 18.8787 C 9.87224 18.3161 9.1048 18 8.30458 18 Z M 18.8649 18 C 18.0647 18 17.2972 18.3161 16.7314 18.8787 C 16.1656 19.4413 15.8477 20.2044 15.8477 21 C 15.8477 21.7956 16.1656 22.5587 16.7314 23.1213 C 17.2972 23.6839 18.0647 24 18.8649 24 C 19.6651 24 20.4326 23.6839 20.9984 23.1213 C 21.5643 22.5587 21.8822 21.7956 21.8822 21 C 21.8822 20.2044 21.5643 19.4413 20.9984 18.8787 C 20.4326 18.3161 19.6651 18 18.8649 18 Z M 8.30458 19.5 C 7.90446 19.5 7.52074 19.658 7.23782 19.9393 C 6.9549 20.2206 6.79596 20.6022 6.79596 21 C 6.79596 21.3978 6.9549 21.7794 7.23782 22.0607 C 7.52074 22.342 7.90446 22.5 8.30458 22.5 C 8.70469 22.5 9.08841 22.342 9.37133 22.0607 C 9.65425 21.7794 9.8132 21.3978 9.8132 21 C 9.8132 20.6022 9.65425 20.2206 9.37133 19.9393 C 9.08841 19.658 8.70469 19.5 8.30458 19.5 Z M 18.8649 19.5 C 18.4648 19.5 18.0811 19.658 17.7982 19.9393 C 17.5152 20.2206 17.3563 20.6022 17.3563 21 C 17.3563 21.3978 17.5152 21.7794 17.7982 22.0607 C 18.0811 22.342 18.4648 22.5 18.8649 22.5 C 19.265 22.5 19.6488 22.342 19.9317 22.0607 C 20.2146 21.7794 20.3735 21.3978 20.3735 21 C 20.3735 20.6022 20.2146 20.2206 19.9317 19.9393 C 19.6488 19.658 19.265 19.5 18.8649 19.5 Z" stroke-linecap="round" />
</g>
</svg>