<svg version="1.2" xmlns="http://www.w3.org/2000/svg" viewBox="0 0 1080 1080" width="1080" height="1080">
	<title>eye-icon-svg</title>
	<style>
		.s0 { fill: #272727 } 
	</style>
	<g id="c8e1cba7-1549-473f-9cfb-67f3c3ab2a15">
	</g>
	<g id="1d1dc0c3-20e5-44ab-8fce-c0fc33fb4289">
	</g>
	<g id="Layer">
		<g id="Layer">
		</g>
	</g>
	<g id="Layer">
		<g id="Layer">
		</g>
	</g>
	<g id="Layer">
		<g id="Layer">
		</g>
	</g>
	<g id="Layer">
		<g id="Layer">
		</g>
	</g>
	<g id="Layer">
		<path id="Layer" fill-rule="evenodd" class="s0" d="m902 270.4c88 81.6 146.8 179.4 174.8 246.5 6.2 14.8 6.2 31.4 0 46.2-28 67.1-86.8 164.7-174.8 246.5-88.6 82.3-210.2 151.5-362.1 151.5-151.9 0-273.5-69.2-362.1-151.5-88-81.6-146.8-179.4-174.6-246.5-6.2-14.8-6.2-31.4 0-46.2 27.8-67.1 86.6-164.9 174.6-246.5 88.6-82.3 210.2-151.5 362.1-151.5 151.9 0 273.5 69.2 362.1 151.5zm-362.1 540.3c149.5 0 270.7-121.2 270.7-270.7 0-149.5-121.2-270.7-270.7-270.7-149.5 0-270.7 121.2-270.7 270.7 0 149.5 121.2 270.7 270.7 270.7zm-6.2-429.2c-3.4-10.5 3-22.4 13.9-22 76.7 3.2 145.7 55.7 166.6 133.7 25.7 96.2-31.4 195.3-127.7 221.1-96.2 25.7-195.3-31.4-221.1-127.7-3.5-12.9-5.4-25.9-6-38.9-0.4-10.9 11.7-17.3 22-13.9 12.1 3.9 24.8 6.2 38.2 6.2 66.4 0 120.3-54 120.3-120.3 0-13.4-2.3-26.2-6.2-38.2z"/>
	</g>
</svg>