<svg version="1.2" xmlns="http://www.w3.org/2000/svg" viewBox="0 0 1080 1080" width="1080" height="1080">
	<title>eye-slash-icon-svg</title>
	<style>
		.s0 { fill: #272727 } 
	</style>
	<g id="1d1dc0c3-20e5-44ab-8fce-c0fc33fb4289">
	</g>
	<g id="c8e1cba7-1549-473f-9cfb-67f3c3ab2a15">
	</g>
	<g id="Layer">
		<g id="Layer">
		</g>
	</g>
	<g id="Layer">
		<g id="Layer">
		</g>
	</g>
	<g id="Layer">
		<g id="Layer">
		</g>
	</g>
	<g id="Layer">
		<g id="Layer">
		</g>
	</g>
	<g id="Layer">
		<path id="Layer" fill-rule="evenodd" class="s0" d="m253.9 264.2c74.9-58.3 170.8-102.8 286.1-102.8 136.6 0 245.9 62.2 325.3 136.3 79.1 73.3 132 161.2 157.2 221.5 5.6 13.4 5.6 28.2 0 41.6-22.8 54.6-68.1 131.5-135 200.1l177.8 139.2c17.5 13.9 20.7 39.4 6.9 57-13.9 17.6-39.4 20.8-57 6.9l-1000.5-784.1c-17.5-13.9-20.7-39.4-6.9-57 13.9-17.6 39.4-20.8 57-6.9zm122.5 96l152.6 119.6c7.1-14.3 11.2-30.6 11.2-47.8 0-12-2.1-23.5-5.6-34.3-3.1-9.5 2.7-20.1 12.5-19.8 68.9 2.9 131 50 149.7 120.2 9.8 37 6.1 74.3-8.1 107l65.2 51c18.8-34.5 29.4-74 29.4-116.1 0-134.4-109-243.4-243.3-243.4-63 0-120.7 24-163.8 63.4zm376.9 503.5c-61.3 33.1-132.5 54.9-213.3 54.9-136.5 0-245.9-62.2-325.3-136.2-79.1-73.4-132-161.3-157.2-221.6-5.6-13.3-5.6-28.2 0-41.6 16.1-38.7 43.6-88.7 82.2-138.9l159.3 125.6c-1.5 11.1-2.3 22.5-2.3 34.1 0 134.4 109 243.4 243.3 243.4 31.6 0 61.9-6.1 89.6-17.1z"/>
	</g>
</svg>